<svg width="32" height="32" viewBox="0 0 32 32" fill="none" xmlns="http://www.w3.org/2000/svg">
<g clip-path="url(#clip0_127_7637)">
<path d="M16 32C19.1646 32 22.258 31.0616 24.8892 29.3035C27.5204 27.5454 29.5711 25.0466 30.7821 22.1229C31.9931 19.1993 32.31 15.9823 31.6926 12.8786C31.0753 9.77487 29.5514 6.92394 27.3138 4.6863C25.0761 2.44866 22.2252 0.924806 19.1215 0.307443C16.0178 -0.309921 12.8007 0.00693248 9.87711 1.21793C6.9535 2.42894 4.45464 4.4797 2.69654 7.11088C0.938432 9.74207 4.84406e-05 12.8355 4.84406e-05 16C-0.00513159 18.1026 0.405185 20.1855 1.20743 22.1291C2.00967 24.0726 3.18802 25.8385 4.67479 27.3253C6.16156 28.812 7.92744 29.9904 9.87099 30.7926C11.8145 31.5949 13.8974 32.0052 16 32Z" fill="#2775CA"/>
<path d="M20.3997 18.5347C20.3997 16.2075 19.0004 15.4002 16.2004 15.0671C14.199 14.8009 13.8004 14.2671 13.8004 13.3347C13.8004 12.4024 14.4666 11.8002 15.799 11.8002C17.0004 11.8002 17.6666 12.2002 17.9997 13.2009C18.0355 13.2973 18.1 13.3804 18.1846 13.439C18.2691 13.4975 18.3696 13.5286 18.4724 13.5282H19.5386C19.6004 13.5298 19.6618 13.5188 19.7192 13.4959C19.7765 13.473 19.8287 13.4387 19.8723 13.395C19.916 13.3513 19.9504 13.2992 19.9732 13.2418C19.9961 13.1845 20.0071 13.123 20.0055 13.0613V12.9958C19.8767 12.2733 19.5129 11.6135 18.9705 11.119C18.4281 10.6245 17.7376 10.323 17.0063 10.2613V8.66127C17.0063 8.39509 16.8055 8.19582 16.4724 8.12891H15.4717C15.2055 8.12891 15.0063 8.32818 14.9393 8.66127V10.2002C12.9335 10.4736 11.6666 11.8002 11.6666 13.4671C11.6666 15.6678 13.0004 16.5347 15.8004 16.8678C17.6666 17.2009 18.2732 17.5951 18.2732 18.6671C18.2732 19.7391 17.3408 20.4678 16.0739 20.4678C14.3401 20.4678 13.7466 19.7405 13.5401 18.734C13.521 18.6216 13.4631 18.5194 13.3765 18.4452C13.2898 18.3711 13.1799 18.3296 13.0659 18.3282H11.927C11.8653 18.3268 11.804 18.3379 11.7467 18.3609C11.6894 18.3839 11.6374 18.4182 11.5937 18.4618C11.5501 18.5055 11.5158 18.5575 11.4928 18.6148C11.4698 18.6721 11.4587 18.7334 11.4601 18.7951V18.862C11.7277 20.5289 12.7939 21.7289 14.9946 22.062V23.662C14.9946 23.9282 15.1939 24.1289 15.527 24.1958H16.5277C16.7939 24.1958 16.9946 23.9951 17.0601 23.662V22.062C19.0601 21.7289 20.3939 20.3282 20.3939 18.5289L20.3997 18.5347Z" fill="white"/>
<path d="M12.599 25.5331C10.6807 24.8295 9.02477 23.554 7.85493 21.8788C6.68508 20.2037 6.05776 18.2098 6.05776 16.1666C6.05776 14.1234 6.68508 12.1295 7.85493 10.4543C9.02477 8.77919 10.6807 7.50362 12.599 6.80004C12.7269 6.74468 12.8344 6.65071 12.9064 6.53127C12.9784 6.41183 13.0113 6.27289 13.0004 6.13386V5.20004C13.0094 5.07755 12.9737 4.95596 12.8998 4.8578C12.826 4.75965 12.7191 4.69158 12.599 4.66622C12.5051 4.65643 12.4108 4.68013 12.3328 4.73313C9.90573 5.50455 7.78713 7.02828 6.28363 9.08378C4.78013 11.1393 3.96973 13.6199 3.96973 16.1666C3.96973 18.7133 4.78013 21.1939 6.28363 23.2494C7.78713 25.3049 9.90573 26.8286 12.3328 27.6C12.3882 27.6322 12.4505 27.6509 12.5145 27.6544C12.5785 27.6578 12.6424 27.6461 12.701 27.6202C12.7596 27.5942 12.8113 27.5547 12.8517 27.5049C12.8921 27.4552 12.9201 27.3965 12.9335 27.3339C13.0004 27.2669 13.0004 27.2 13.0004 27.0662V26.1339C13.0004 25.9331 12.7997 25.6669 12.599 25.5331ZM19.6666 4.73313C19.6111 4.70093 19.5487 4.68236 19.4846 4.67895C19.4205 4.67554 19.3565 4.68738 19.2979 4.7135C19.2392 4.73962 19.1876 4.77928 19.1473 4.82922C19.107 4.87916 19.0791 4.93795 19.0659 5.00077C19.0004 5.06622 19.0004 5.13313 19.0004 5.26695V6.19931C19.0116 6.33376 19.0535 6.46385 19.1229 6.57958C19.1922 6.69532 19.2872 6.79362 19.4004 6.86695C21.3186 7.57053 22.9746 8.8461 24.1444 10.5212C25.3143 12.1964 25.9416 14.1903 25.9416 16.2335C25.9416 18.2767 25.3143 20.2706 24.1444 21.9457C22.9746 23.6209 21.3186 24.8965 19.4004 25.6C19.2726 25.6554 19.1652 25.7495 19.0935 25.8689C19.0218 25.9884 18.9892 26.1273 19.0004 26.2662V27.2C18.9914 27.3223 19.0269 27.4437 19.1004 27.5419C19.1739 27.64 19.2805 27.7082 19.4004 27.7339C19.4942 27.7436 19.5885 27.7199 19.6666 27.667C22.0927 26.8849 24.2082 25.3534 25.7089 23.2929C27.2096 21.2325 28.0181 18.7491 28.0181 16.2C28.0181 13.651 27.2096 11.1676 25.7089 9.10714C24.2082 7.04665 22.0927 5.51522 19.6666 4.73313Z" fill="white"/>
</g>
<defs>
<clipPath id="clip0_127_7637">
<rect width="32" height="32" fill="white"/>
</clipPath>
</defs>
</svg>
