<svg width="260" height="260" viewBox="0 0 260 260" fill="none" xmlns="http://www.w3.org/2000/svg">
<path d="M130 7.86489C130 3.52123 133.525 -0.0248035 137.861 0.237752C165.125 1.88881 191.254 12.096 212.471 29.5086C235.72 48.5888 251.635 75.14 257.502 104.638C263.37 134.137 258.828 164.757 244.65 191.282C230.472 217.806 207.536 238.595 179.749 250.104C151.962 261.614 121.044 263.133 92.263 254.402C63.4818 245.672 38.6184 227.232 21.9089 202.224C5.1995 177.217 -2.322 147.189 0.625989 117.258C3.31635 89.9421 14.5744 64.249 32.686 43.8025C35.5661 40.551 40.566 40.566 43.6375 43.6374V43.6374C46.7089 46.7088 46.6858 51.6718 43.8328 54.9472C28.2804 72.802 18.6136 95.1064 16.28 118.8C13.6887 145.109 20.3001 171.504 34.9878 193.485C49.6754 215.467 71.5304 231.676 96.8291 239.35C122.128 247.024 149.305 245.689 173.729 235.572C198.154 225.455 218.315 207.182 230.777 183.867C243.24 160.551 247.232 133.636 242.075 107.707C236.917 81.778 222.928 58.4394 202.492 41.6679C184.089 26.5644 161.482 17.6283 137.859 16.0002C133.526 15.7016 130 12.2085 130 7.86489V7.86489Z" fill="url(#paint0_linear_4_2701)"/>
<defs>
<linearGradient id="paint0_linear_4_2701" x1="157.019" y1="-6.57105" x2="-22.4914" y2="5.36303e-07" gradientUnits="userSpaceOnUse">
<stop stop-color="#0439C7"/>
<stop offset="1" stop-color="#33E6BF"/>
</linearGradient>
</defs>
</svg>
