<svg width="45" height="44" viewBox="0 0 45 44" fill="none" xmlns="http://www.w3.org/2000/svg">
<path d="M17.2867 43.4501C18.9111 43.4501 20.2011 42.7233 21.1567 41.2697L42.9914 7.13935C43.2781 6.69691 43.5408 6.21498 43.7795 5.69356C44.0186 5.1721 44.1382 4.64276 44.1382 4.10554C44.1382 3.06266 43.7399 2.2252 42.9434 1.59316C42.1472 0.961129 41.2553 0.645111 40.2677 0.645111C38.9301 0.645111 37.8154 1.35615 36.9237 2.77824L17.0956 34.3487L7.68325 22.261C7.10992 21.5025 6.54454 20.989 5.98713 20.7204C5.42971 20.4517 4.81655 20.3174 4.14765 20.3174C3.12838 20.3174 2.26042 20.6888 1.54377 21.4315C0.827091 22.1742 0.46875 23.0668 0.46875 24.1095C0.46875 25.0894 0.835049 26.0691 1.56765 27.0486L13.2255 41.2697C13.8307 42.0282 14.4598 42.5812 15.1128 42.9288C15.7657 43.2763 16.4904 43.4501 17.2867 43.4501Z" fill="white"/>
</svg>
