<svg width="440" height="376" viewBox="0 0 440 376" fill="none" xmlns="http://www.w3.org/2000/svg">
<path d="M215.026 206.784L81.9958 283.785L62.4506 264.24L179.07 185.878L215.026 206.784Z" fill="url(#paint0_linear_1_1162)"/>
<path d="M218.033 211.992L84.8334 288.699L91.9872 315.399L218.16 253.584L218.033 211.992Z" fill="url(#paint1_linear_1_1162)"/>
<path d="M223.321 211.992L356.521 288.699L349.367 315.398L223.194 253.584L223.321 211.992Z" fill="url(#paint2_linear_1_1162)"/>
<path d="M226.328 206.784L359.359 283.784L378.904 264.239L262.284 185.878L226.328 206.784Z" fill="url(#paint3_linear_1_1162)"/>
<path d="M223.321 201.094L223.152 47.3856L249.851 40.2314L259.405 180.408L223.321 201.094Z" fill="url(#paint4_linear_1_1162)"/>
<path d="M217.308 201.094L217.477 47.3856L190.778 40.2314L181.224 180.408L217.308 201.094Z" fill="url(#paint5_linear_1_1162)"/>
<path d="M215.026 206.784L81.9958 283.785L62.4506 264.24L179.07 185.878L215.026 206.784Z" stroke="url(#paint6_linear_1_1162)"/>
<path d="M218.033 211.992L84.8334 288.699L91.9872 315.399L218.16 253.584L218.033 211.992Z" stroke="url(#paint7_linear_1_1162)"/>
<path d="M223.321 211.992L356.521 288.699L349.367 315.398L223.194 253.584L223.321 211.992Z" stroke="url(#paint8_linear_1_1162)"/>
<path d="M226.328 206.784L359.359 283.784L378.904 264.239L262.284 185.878L226.328 206.784Z" stroke="url(#paint9_linear_1_1162)"/>
<path d="M223.321 201.094L223.152 47.3856L249.851 40.2314L259.405 180.408L223.321 201.094Z" stroke="url(#paint10_linear_1_1162)"/>
<path d="M217.308 201.094L217.477 47.3856L190.778 40.2314L181.224 180.408L217.308 201.094Z" stroke="url(#paint11_linear_1_1162)"/>
<g opacity="0.6">
<path d="M91.0566 333.68L220.314 271.17L349.572 333.68" stroke="#0439C7"/>
<path d="M91.0566 333.68L220.314 271.17L349.572 333.68" stroke="url(#paint12_linear_1_1162)"/>
</g>
<g opacity="0.6">
<path d="M43.3796 255.278L162.043 174.756L172.637 30.6657" stroke="#0439C7"/>
<path d="M43.3796 255.278L162.043 174.756L172.637 30.6657" stroke="url(#paint13_linear_1_1162)"/>
</g>
<g opacity="0.6">
<path d="M267.992 29.6062L278.586 173.697L397.249 255.278" stroke="#0439C7"/>
<path d="M267.992 29.6062L278.586 173.697L397.249 255.278" stroke="url(#paint14_linear_1_1162)"/>
</g>
<path opacity="0.4" d="M91.0566 354.87L220.314 292.36L349.572 354.87" stroke="url(#paint15_linear_1_1162)"/>
<g opacity="0.4">
<path d="M22.1899 242.564L140.853 162.042L151.448 17.9518" stroke="#0439C7"/>
<path d="M22.1899 242.564L140.853 162.042L151.448 17.9518" stroke="url(#paint16_linear_1_1162)"/>
</g>
<g opacity="0.4">
<path d="M288.122 27.4873L299.776 160.983L418.439 242.564" stroke="#0439C7"/>
<path d="M288.122 27.4873L299.776 160.983L418.439 242.564" stroke="url(#paint17_linear_1_1162)"/>
</g>
<path opacity="0.2" d="M91.0566 375L220.314 312.49L349.572 375" stroke="url(#paint18_linear_1_1162)"/>
<g opacity="0.2">
<path d="M1 225.612L119.663 145.091L130.258 1" stroke="#0439C7"/>
<path d="M1 225.612L119.663 145.091L130.258 1" stroke="url(#paint19_linear_1_1162)"/>
</g>
<g opacity="0.2">
<path d="M310.371 1L320.966 145.091L439.629 226.671" stroke="#0439C7"/>
<path d="M310.371 1L320.966 145.091L439.629 226.671" stroke="url(#paint20_linear_1_1162)"/>
</g>
<defs>
<linearGradient id="paint0_linear_1_1162" x1="220.677" y1="40.2314" x2="220.677" y2="315.399" gradientUnits="userSpaceOnUse">
<stop stop-color="#33E6BF"/>
<stop offset="1" stop-color="#0439C7"/>
</linearGradient>
<linearGradient id="paint1_linear_1_1162" x1="220.677" y1="40.2314" x2="220.677" y2="315.399" gradientUnits="userSpaceOnUse">
<stop stop-color="#33E6BF"/>
<stop offset="1" stop-color="#0439C7"/>
</linearGradient>
<linearGradient id="paint2_linear_1_1162" x1="220.677" y1="40.2314" x2="220.677" y2="315.399" gradientUnits="userSpaceOnUse">
<stop stop-color="#33E6BF"/>
<stop offset="1" stop-color="#0439C7"/>
</linearGradient>
<linearGradient id="paint3_linear_1_1162" x1="220.677" y1="40.2314" x2="220.677" y2="315.399" gradientUnits="userSpaceOnUse">
<stop stop-color="#33E6BF"/>
<stop offset="1" stop-color="#0439C7"/>
</linearGradient>
<linearGradient id="paint4_linear_1_1162" x1="220.677" y1="40.2314" x2="220.677" y2="315.399" gradientUnits="userSpaceOnUse">
<stop stop-color="#33E6BF"/>
<stop offset="1" stop-color="#0439C7"/>
</linearGradient>
<linearGradient id="paint5_linear_1_1162" x1="220.677" y1="40.2314" x2="220.677" y2="315.399" gradientUnits="userSpaceOnUse">
<stop stop-color="#33E6BF"/>
<stop offset="1" stop-color="#0439C7"/>
</linearGradient>
<linearGradient id="paint6_linear_1_1162" x1="220.677" y1="40.2314" x2="220.677" y2="315.399" gradientUnits="userSpaceOnUse">
<stop stop-color="#33E6BF"/>
<stop offset="1" stop-color="#0439C7"/>
</linearGradient>
<linearGradient id="paint7_linear_1_1162" x1="220.677" y1="40.2314" x2="220.677" y2="315.399" gradientUnits="userSpaceOnUse">
<stop stop-color="#33E6BF"/>
<stop offset="1" stop-color="#0439C7"/>
</linearGradient>
<linearGradient id="paint8_linear_1_1162" x1="220.677" y1="40.2314" x2="220.677" y2="315.399" gradientUnits="userSpaceOnUse">
<stop stop-color="#33E6BF"/>
<stop offset="1" stop-color="#0439C7"/>
</linearGradient>
<linearGradient id="paint9_linear_1_1162" x1="220.677" y1="40.2314" x2="220.677" y2="315.399" gradientUnits="userSpaceOnUse">
<stop stop-color="#33E6BF"/>
<stop offset="1" stop-color="#0439C7"/>
</linearGradient>
<linearGradient id="paint10_linear_1_1162" x1="220.677" y1="40.2314" x2="220.677" y2="315.399" gradientUnits="userSpaceOnUse">
<stop stop-color="#33E6BF"/>
<stop offset="1" stop-color="#0439C7"/>
</linearGradient>
<linearGradient id="paint11_linear_1_1162" x1="220.677" y1="40.2314" x2="220.677" y2="315.399" gradientUnits="userSpaceOnUse">
<stop stop-color="#33E6BF"/>
<stop offset="1" stop-color="#0439C7"/>
</linearGradient>
<linearGradient id="paint12_linear_1_1162" x1="221.374" y1="305.074" x2="216.076" y2="41.2606" gradientUnits="userSpaceOnUse">
<stop stop-color="#0439C7"/>
<stop offset="1" stop-color="#33E6BF"/>
</linearGradient>
<linearGradient id="paint13_linear_1_1162" x1="-5.3569" y1="275.313" x2="-21.9072" y2="33.0681" gradientUnits="userSpaceOnUse">
<stop stop-color="#0439C7"/>
<stop offset="1" stop-color="#33E6BF"/>
</linearGradient>
<linearGradient id="paint14_linear_1_1162" x1="219.255" y1="275.408" x2="202.549" y2="32.0306" gradientUnits="userSpaceOnUse">
<stop stop-color="#0439C7"/>
<stop offset="1" stop-color="#33E6BF"/>
</linearGradient>
<linearGradient id="paint15_linear_1_1162" x1="218.195" y1="293.419" x2="215.017" y2="17.9518" gradientUnits="userSpaceOnUse">
<stop stop-color="#0439C7"/>
<stop offset="1" stop-color="#33E6BF"/>
</linearGradient>
<linearGradient id="paint16_linear_1_1162" x1="-26.5466" y1="262.6" x2="-43.0969" y2="20.3542" gradientUnits="userSpaceOnUse">
<stop stop-color="#0439C7"/>
<stop offset="1" stop-color="#33E6BF"/>
</linearGradient>
<linearGradient id="paint17_linear_1_1162" x1="238.986" y1="261.749" x2="223.927" y2="29.6821" gradientUnits="userSpaceOnUse">
<stop stop-color="#0439C7"/>
<stop offset="1" stop-color="#33E6BF"/>
</linearGradient>
<linearGradient id="paint18_linear_1_1162" x1="218.195" y1="313.55" x2="215.017" y2="38.0822" gradientUnits="userSpaceOnUse">
<stop stop-color="#0439C7"/>
<stop offset="1" stop-color="#33E6BF"/>
</linearGradient>
<linearGradient id="paint19_linear_1_1162" x1="-47.7365" y1="245.648" x2="-64.2869" y2="3.40239" gradientUnits="userSpaceOnUse">
<stop stop-color="#0439C7"/>
<stop offset="1" stop-color="#33E6BF"/>
</linearGradient>
<linearGradient id="paint20_linear_1_1162" x1="261.635" y1="246.802" x2="244.928" y2="3.42441" gradientUnits="userSpaceOnUse">
<stop stop-color="#0439C7"/>
<stop offset="1" stop-color="#33E6BF"/>
</linearGradient>
</defs>
</svg>
